<?xml version="1.0" encoding="UTF-8"?>
<svg width="78px" height="68px" viewBox="0 0 78 68" version="1.1" xmlns="http://www.w3.org/2000/svg" xmlns:xlink="http://www.w3.org/1999/xlink">
    <!-- Generator: Sketch 52.6 (67491) - http://www.bohemiancoding.com/sketch -->
    <title>Logo@3x</title>
    <desc>Created with Sketch.</desc>
    <g id="Page-1" stroke="none" stroke-width="1" fill="none" fill-rule="evenodd">
        <g id="Desktop_Dashboard-Results" transform="translate(-85.000000, -46.000000)">
            <g id="Logo" transform="translate(85.000000, 46.000000)">
                <path d="M13.3818125,41 L11.4764661,41 C11.135012,41 10.8581832,41.2509316 10.8581832,41.5603563 L10.8581832,46.971913 L3.14181684,46.971913 L3.14181684,41.5603563 C3.14181684,41.2509316 2.86498797,41 2.52362932,41 L0.618187521,41 C0.276828877,41 0,41.2509316 0,41.5603563 L0,55.4396437 C0,55.7491549 0.276828877,56 0.618187521,56 L2.52362932,56 C2.86498797,56 3.14181684,55.7491549 3.14181684,55.4396437 L3.14181684,49.6327399 L10.8581832,49.6327399 L10.8581832,55.4396437 C10.8581832,55.7491549 11.135012,56 11.4764661,56 L13.3818125,56 C13.7232666,56 14,55.7491549 14,55.4396437 L14,41.5603563 C14,41.2509316 13.7232666,41 13.3818125,41" id="Fill-1" fill="#3F4145"></path>
                <path d="M26.694053,50.2598425 L22.2867098,50.2598425 L24.4980225,44.8781691 L26.694053,50.2598425 Z M26.1425508,41.3508696 C26.053825,41.1387903 25.8400561,41 25.6027349,41 L23.3760503,41 C23.1383695,41 22.9243309,41.1390499 22.8358748,41.3513888 L17.0420901,55.2305096 C16.9699049,55.4034784 16.9914796,55.5991174 17.0998023,55.7534827 C17.2081251,55.9075019 17.3889028,56 17.5822656,56 L19.6360832,56 C19.8743034,56 20.0887016,55.8601713 20.1767981,55.6469672 L21.3062315,52.920308 L27.6941284,52.920308 L28.8235617,55.6469672 C28.9116583,55.8601713 29.1259665,56 29.3642766,56 L31.4178245,56 C31.6114571,56 31.7922348,55.9075019 31.9005575,55.7531366 C32.0085207,55.5988578 32.0301853,55.4026997 31.9576405,55.2299905 L26.1425508,41.3508696 Z" id="Fill-4" fill="#3F4145"></path>
                <path d="M46.4178245,41 L44.3641867,41 C44.1246181,41 43.9091412,41.1414735 43.8218537,41.356496 L39.5000001,52.0058608 L35.1785061,41.356496 C35.0912186,41.1414735 34.8760114,41 34.6360832,41 L32.5822656,41 C32.3889028,41 32.2081251,41.0924986 32.0998023,41.2465187 C31.9914796,41.4008849 31.9699049,41.596525 32.0420901,41.7694083 L37.8358748,55.6486957 C37.9243309,55.8610358 38.1383695,56 38.3760503,56 L40.6027349,56 C40.8400561,56 41.053825,55.8612954 41.1425508,55.6492149 L46.9576405,41.770014 C47.0301853,41.5973038 47.0085207,41.4011445 46.9005575,41.2467783 C46.7922348,41.0924986 46.6114571,41 46.4178245,41" id="Fill-6" fill="#3F4145"></path>
                <path d="M61.3965199,41 L51.6034801,41 C51.2702428,41 51,41.2509316 51,41.5603563 L51,55.4396437 C51,55.7491549 51.2702428,56 51.6034801,56 L61.3965199,56 C61.7298504,56 62,55.7491549 62,55.4396437 L62,53.8999619 C62,53.5904508 61.7298504,53.3395191 61.3965199,53.3395191 L54.0670693,53.3395191 L54.0670693,49.6742735 L61.2397791,49.6742735 C61.5730164,49.6742735 61.8432592,49.4233418 61.8432592,49.1139172 L61.8432592,47.5738893 C61.8432592,47.2644646 61.5730164,47.013533 61.2397791,47.013533 L54.0670693,47.013533 L54.0670693,43.6604809 L61.3965199,43.6604809 C61.7298504,43.6604809 62,43.4095492 62,43.1001246 L62,41.5603563 C62,41.2509316 61.7298504,41 61.3965199,41" id="Fill-8" fill="#3F4145"></path>
                <path d="M77.4666301,41 L75.8227042,41 C75.5280988,41 75.2892519,41.2509316 75.2892519,41.5603563 L75.2892519,50.6968631 L68.6465065,41.2279151 C68.5459437,41.084538 68.3865752,41 68.2169938,41 L66.5334523,41 C66.2388469,41 66,41.2509316 66,41.5603563 L66,55.4396437 C66,55.7491549 66.2388469,56 66.5334523,56 L68.1773782,56 C68.4719835,56 68.7108305,55.7491549 68.7108305,55.4396437 L68.7108305,46.0853456 L75.4515031,55.7704408 C75.5518188,55.9146832 75.712011,56 75.8820865,56 L77.4666301,56 C77.7612354,56 78,55.7491549 78,55.4396437 L78,41.5603563 C78,41.2509316 77.7612354,41 77.4666301,41" id="Fill-10" fill="#3F4145"></path>
                <path d="M32.3334071,60 C33.6384769,60 34.4554738,60.8102056 34.9248672,61.7250266 L33.8169692,62.4659322 C33.5352834,61.9218712 32.9999723,61.4585748 32.3334071,61.4585748 C31.1971995,61.4585748 30.3709874,62.5355393 30.3709874,63.9942165 C30.3709874,65.4530984 31.1971995,66.5297557 32.3334071,66.5297557 C32.8873146,66.5297557 33.4132444,66.2287052 33.6667866,65.9393241 L33.6667866,65.0128338 L32.0141964,65.0128338 L32.0141964,63.5772907 L35,63.5772907 L35,66.5411181 C34.3614955,67.4212378 33.4693657,68 32.3334071,68 C30.5024906,68 29,66.4255499 29,63.9942165 C29,61.5515207 30.5024906,60 32.3334071,60" id="Fill-12" fill="#2FA09D"></path>
                <path d="M39.23318,63.1245228 L37.5775875,63.1245228 L37.5775875,64.7437434 L39.23318,64.7437434 C39.8666514,64.7437434 40.3445058,64.4379374 40.3445058,63.9340933 C40.3445058,63.4303287 39.8666514,63.1245228 39.23318,63.1245228 L39.23318,63.1245228 Z M38.7333191,65.8682662 L37.5775875,65.8682662 L37.5775875,68 L36,68 L36,62 L39.4665073,62 C41.0111833,62 41.9555941,62.8187169 41.9555941,63.9340933 C41.9555941,64.9954666 41.1332995,65.5623807 40.333306,65.7153234 L42,68 L40.1887905,68 L38.7333191,65.8682662 Z" id="Fill-14" fill="#2FA09D"></path>
                <path d="M44,64 C44,61.6231676 45.4670107,60 47.3597657,60 C48.7507984,60 49.5551775,60.9275243 50,61.8900051 L48.8455198,62.5856484 C48.5806848,61.9593029 48.0127746,61.4607893 47.3597657,61.4607893 C46.2144899,61.4607893 45.3818283,62.5393132 45.3818283,64 C45.3818283,65.4610969 46.2144899,66.5392107 47.3597657,66.5392107 C48.0127746,66.5392107 48.5806848,66.0523834 48.8455198,65.4143516 L50,66.0987186 C49.5459731,67.0607893 48.7507984,68 47.3597657,68 C45.4670107,68 44,66.3768324 44,64" id="Fill-16" fill="#2FA09D"></path>
                <path d="M36.5,23 C35.6716732,23 35,22.2984658 35,21.4333135 L35,7.5666865 C35,6.70162221 35.6716732,6 36.5,6 C37.3283268,6 38,6.70162221 38,7.5666865 L38,21.4333135 C38,22.2984658 37.3283268,23 36.5,23" id="Fill-18" fill="#2FA09D"></path>
                <path d="M42.5,30 C41.6716732,30 41,29.2903839 41,28.4152648 L41,14.5847352 C41,13.7097051 41.6716732,13 42.5,13 C43.3283268,13 44,13.7097051 44,14.5847352 L44,28.4152648 C44,29.2903839 43.3283268,30 42.5,30" id="Fill-20" fill="#E86954"></path>
                <g id="Group-24" transform="translate(27.000000, 0.000000)" fill="#E86954">
                    <path d="M2.10946609,35.1168488 C0.97932315,35.1168488 0.0629133969,34.4219995 0.0629133969,33.5650912 L0.0629133969,1.60925363 C0.0629133969,0.752345391 0.97932315,0.0574960594 2.10946609,0.0574960594 C3.23960902,0.0574960594 4.15601878,0.752345391 4.15601878,1.60925363 L4.15601878,33.5650912 C4.15601878,34.4219995 3.23960902,35.1168488 2.10946609,35.1168488" id="Fill-22"></path>
                </g>
                <g id="Group-27" transform="translate(46.000000, 0.000000)" fill="#2FA09D">
                    <path d="M2.13357427,35.1168488 C1.00343133,35.1168488 0.0870215807,34.4219995 0.0870215807,33.5650912 L0.0870215807,1.60925363 C0.0870215807,0.752345391 1.00343133,0.0574960594 2.13357427,0.0574960594 C3.26371721,0.0574960594 4.18012696,0.752345391 4.18012696,1.60925363 L4.18012696,33.5650912 C4.18012696,34.4219995 3.26371721,35.1168488 2.13357427,35.1168488" id="Fill-25"></path>
                </g>
            </g>
        </g>
    </g>
</svg>