<?xml version="1.0" encoding="UTF-8"?>
<svg width="867px" height="493px" viewBox="0 0 867 493" version="1.1" xmlns="http://www.w3.org/2000/svg" xmlns:xlink="http://www.w3.org/1999/xlink">
    <!-- Generator: Sketch 52.6 (67491) - http://www.bohemiancoding.com/sketch -->
    <title>wireframe-large</title>
    <desc>Created with Sketch.</desc>
    <defs>
        <rect id="path-1" x="0" y="0" width="827" height="453" rx="8"></rect>
        <filter x="-3.6%" y="-6.6%" width="107.3%" height="113.2%" filterUnits="objectBoundingBox" id="filter-3">
            <feOffset dx="0" dy="0" in="SourceAlpha" result="shadowOffsetOuter1"></feOffset>
            <feGaussianBlur stdDeviation="10" in="shadowOffsetOuter1" result="shadowBlurOuter1"></feGaussianBlur>
            <feColorMatrix values="0 0 0 0 0   0 0 0 0 0   0 0 0 0 0  0 0 0 0.13502038 0" type="matrix" in="shadowBlurOuter1"></feColorMatrix>
        </filter>
        <polygon id="path-4" points="0.0302134084 0.0295516574 9.30750704 0.0295516574 9.30750704 87.4869181 0.0302134084 87.4869181 0.0302134084 0.0295516574"></polygon>
        <polygon id="path-6" points="9.36281429 102.932739 0.0855206573 102.932739 0.0855206573 0.0553844546 9.36281429 0.0553844546"></polygon>
    </defs>
    <g id="Page-1" stroke="none" stroke-width="1" fill="none" fill-rule="evenodd">
        <g id="Desktop_Landing-" transform="translate(-207.000000, -409.000000)">
            <g id="Wireframe" transform="translate(227.000000, 429.000000)">
                <g>
                    <mask id="mask-2" fill="white">
                        <use xlink:href="#path-1"></use>
                    </mask>
                    <g id="Rectangle">
                        <use fill="black" fill-opacity="1" filter="url(#filter-3)" xlink:href="#path-1"></use>
                        <use fill="#FFFFFF" fill-rule="evenodd" xlink:href="#path-1"></use>
                    </g>
                    <g id="lines" mask="url(#mask-2)">
                        <g transform="translate(214.619377, 361.920635)">
                            <path d="M219.111643,32.9717582 C221.673151,32.9717582 223.75029,34.7051234 223.75029,36.8426933 L223.75029,65.5700033 C223.75029,67.7074625 221.673151,69.4409384 219.111643,69.4409384 C216.550135,69.4409384 214.472996,67.7074625 214.472996,65.5700033 L214.472996,36.8426933 C214.472996,34.7051234 216.550135,32.9717582 219.111643,32.9717582" id="Fill-1" fill="#E86954"></path>
                            <path d="M199.559536,41.9609075 C202.121044,41.9609075 204.198183,43.6942727 204.198183,45.8318426 L204.585201,101.249612 C204.585201,103.387182 202.50793,105.120547 199.946421,105.120547 C197.385046,105.120547 195.307775,103.387182 195.307775,101.249612 L194.920889,45.8318426 C194.920889,43.6942727 196.998028,41.9609075 199.559536,41.9609075" id="Fill-3" fill="#2FA09D"></path>
                            <path d="M238.66375,85.9720802 C241.225258,85.9720802 243.302397,87.7054454 243.302397,89.8430153 L243.302397,132.480412 C243.302397,134.617871 241.225258,136.351347 238.66375,136.351347 C236.102242,136.351347 234.025104,134.617871 234.025104,132.480412 L234.025104,89.8430153 C234.025104,87.7054454 236.102242,85.9720802 238.66375,85.9720802" id="Fill-5" fill="#E86954"></path>
                            <path d="M238.66375,6.75112594 C241.225258,6.75112594 243.302397,8.48449114 243.302397,10.622061 L243.302397,74.288838 C243.302397,76.4264079 241.225258,78.1598838 238.66375,78.1598838 C236.102242,78.1598838 234.025104,76.4264079 234.025104,74.288838 L234.025104,10.622061 C234.025104,8.48449114 236.102242,6.75112594 238.66375,6.75112594" id="Fill-7" fill="#2FA09D"></path>
                            <g id="Group-11" stroke-width="1" fill="none" transform="translate(175.338568, 0.080797)">
                                <mask id="mask-5" fill="white">
                                    <use xlink:href="#path-4"></use>
                                </mask>
                                <g id="Clip-10"></g>
                                <path d="M4.66886023,0.0295073853 C7.23036837,0.0295073853 9.30750704,1.76287258 9.30750704,3.90044247 L9.30750704,83.6158723 C9.30750704,85.7534422 7.23036837,87.4869181 4.66886023,87.4869181 C2.10735208,87.4869181 0.0302134084,85.7534422 0.0302134084,83.6158723 L0.0302134084,3.90044247 C0.0302134084,1.76287258 2.10735208,0.0295073853 4.66886023,0.0295073853" id="Fill-9" fill="#E86954" mask="url(#mask-5)"></path>
                            </g>
                            <path d="M179.900408,138.099599 C177.3389,138.099599 175.261762,136.366234 175.261762,134.228664 L175.261762,99.9673357 C175.261762,97.8298764 177.3389,96.0964006 179.900408,96.0964006 C182.461917,96.0964006 184.539055,97.8298764 184.539055,99.9673357 L184.539055,134.228664 C184.539055,136.366234 182.461917,138.099599 179.900408,138.099599" id="Fill-12" fill="#2FA09D"></path>
                            <path d="M199.452502,153.031963 C196.890994,153.031963 194.813856,151.298598 194.813856,149.161028 L194.813856,115.37806 C194.813856,113.240601 196.890994,111.507125 199.452502,111.507125 C202.014011,111.507125 204.091149,113.240601 204.091149,115.37806 L204.091149,149.161028 C204.091149,151.298598 202.014011,153.031963 199.452502,153.031963" id="Fill-14" fill="#E86954"></path>
                            <path d="M160.348301,168.726992 C157.786793,168.726992 155.709654,166.993627 155.709654,164.856057 L155.709654,81.7821422 C155.709654,79.6445723 157.786793,77.9112071 160.348301,77.9112071 C162.909809,77.9112071 164.986948,79.6445723 164.986948,81.7821422 L164.986948,164.856057 C164.986948,166.993627 162.909809,168.726992 160.348301,168.726992" id="Fill-16" fill="#E86954"></path>
                            <path d="M219.00461,168.726992 C216.443102,168.726992 214.365963,166.993627 214.365963,164.856057 L214.365963,79.6066089 C214.365963,77.4690391 216.443102,75.7355632 219.00461,75.7355632 C221.566118,75.7355632 223.643256,77.4690391 223.643256,79.6066089 L223.643256,164.856057 C223.643256,166.993627 221.566118,168.726992 219.00461,168.726992" id="Fill-18" fill="#2FA09D"></path>
                            <path d="M219.111643,177.465107 C221.673151,177.465107 223.75029,179.198473 223.75029,181.336042 L223.75029,247.888146 C223.75029,250.025716 221.673151,251.759081 219.111643,251.759081 C216.550135,251.759081 214.472996,250.025716 214.472996,247.888146 L214.472996,181.336042 C214.472996,179.198473 216.550135,177.465107 219.111643,177.465107" id="Fill-20" fill="#E86954"></path>
                            <path d="M160.197553,20.4625527 C162.759061,20.4625527 164.836199,22.1959178 164.836199,24.3334877 L164.836199,67.0633028 C164.836199,69.2008727 162.759061,70.9342379 160.197553,70.9342379 C157.636044,70.9342379 155.558906,69.2008727 155.558906,67.0633028 L155.558906,24.3334877 C155.558906,22.1959178 157.636044,20.4625527 160.197553,20.4625527" id="Fill-22" fill="#2FA09D"></path>
                            <path d="M41.7839899,92.645265 C44.3454981,92.645265 46.4226367,94.3786302 46.4226367,96.5162001 L46.4226367,134.818801 C46.4226367,136.95637 44.3454981,138.689736 41.7839899,138.689736 C39.2224818,138.689736 37.1453431,136.95637 37.6758683,134.818801 L37.6758683,96.5162001 C37.1453431,94.3786302 39.2224818,92.645265 41.7839899,92.645265" id="Fill-24" fill="#2FA09D"></path>
                            <path d="M160.348301,177.465107 C162.909809,177.465107 164.986948,179.198473 164.986948,181.336042 L164.986948,225.284559 C164.986948,227.422129 162.909809,229.155494 160.348301,229.155494 C157.786793,229.155494 155.709654,227.422129 155.709654,225.284559 L155.709654,181.336042 C155.709654,179.198473 157.786793,177.465107 160.348301,177.465107" id="Fill-26" fill="#2FA09D"></path>
                            <g id="Group-30" stroke-width="1" fill="none" transform="translate(194.835368, 159.349842)">
                                <mask id="mask-7" fill="white">
                                    <use xlink:href="#path-6"></use>
                                </mask>
                                <g id="Clip-29"></g>
                                <path d="M4.72416747,0.0553844546 C7.28567562,0.0553844546 9.36281429,1.78874965 9.36281429,3.92631954 L9.36281429,99.0617378 C9.36281429,101.199308 7.28567562,102.932784 4.72416747,102.932784 C2.16265933,102.932784 0.0855206573,101.199308 0.0855206573,99.0617378 L0.0855206573,3.92631954 C0.0855206573,1.78874965 2.16265933,0.0553844546 4.72416747,0.0553844546" id="Fill-28" fill="#2FA09D" mask="url(#mask-7)"></path>
                            </g>
                            <path d="M238.66375,143.295943 C241.225258,143.295943 243.302397,145.029308 243.302397,147.166878 L243.302397,205.11159 C243.302397,207.24916 241.225258,208.982526 238.66375,208.982526 C236.102242,208.982526 234.025104,207.24916 234.025104,205.11159 L234.025104,147.166878 C234.025104,145.029308 236.102242,143.295943 238.66375,143.295943" id="Fill-31" fill="#2FA09D"></path>
                            <path d="M180.007429,146.948395 C182.568937,146.948395 184.646075,148.68176 184.646075,150.81933 L184.646075,217.618472 C184.646075,219.756042 182.568937,221.489407 180.007429,221.489407 C177.445921,221.489407 175.368782,219.756042 175.368782,217.618472 L175.368782,150.81933 C175.368782,148.68176 177.445921,146.948395 180.007429,146.948395" id="Fill-33" fill="#E86954"></path>
                            <path d="M121.389888,86.0747916 C123.951397,86.0747916 126.028535,87.8081568 126.028535,89.9457267 L126.028535,128.63427 C126.028535,130.771839 123.951397,132.505205 121.389888,132.505205 C118.82838,132.505205 116.751242,130.771839 116.751242,128.63427 L116.751242,89.9457267 C116.751242,87.8081568 118.82838,86.0747916 121.389888,86.0747916" id="Fill-35" fill="#2FA09D"></path>
                            <path d="M101.837781,107.037885 C104.399289,107.037885 106.476428,108.77125 106.476428,110.90882 L106.863446,166.32659 C106.863446,168.464159 104.786175,170.197525 102.224667,170.197525 C99.6632911,170.197525 97.5860198,168.464159 97.5860198,166.32659 L97.1991344,110.90882 C97.1991344,108.77125 99.276273,107.037885 101.837781,107.037885" id="Fill-37" fill="#2FA09D"></path>
                            <path d="M140.941996,163.223909 C143.503504,163.223909 145.580642,164.957274 145.580642,167.094844 L145.580642,200.877812 C145.580642,203.015271 143.503504,204.748747 140.941996,204.748747 C138.380487,204.748747 136.303349,203.015271 136.303349,200.877812 L136.303349,167.094844 C136.303349,164.957274 138.380487,163.223909 140.941996,163.223909" id="Fill-39" fill="#E86954"></path>
                            <path d="M140.941996,65.1872817 C143.503504,65.1872817 145.580642,66.9206469 145.580642,69.0582168 L145.580642,148.773647 C145.580642,150.911217 143.503504,152.644692 140.941996,152.644692 C138.380487,152.644692 136.303349,150.911217 136.303349,148.773647 L136.303349,69.0582168 C136.303349,66.9206469 138.380487,65.1872817 140.941996,65.1872817" id="Fill-41" fill="#2FA09D"></path>
                            <path d="M82.285674,66.0678325 C84.8471821,66.0678325 86.9243208,67.8011977 86.9243208,69.9387676 L86.9243208,102.287982 C86.9243208,104.425441 84.8471821,106.158917 82.285674,106.158917 C79.7241658,106.158917 77.6470271,104.425441 77.6470271,102.287982 L77.6470271,69.9387676 C77.6470271,67.8011977 79.7241658,66.0678325 82.285674,66.0678325" id="Fill-43" fill="#E86954"></path>
                            <path d="M82.1786405,191.887191 C79.6171324,191.887191 77.5399937,190.153825 77.5399937,188.016255 L77.5399937,118.33721 C77.5399937,116.199751 79.6171324,114.466275 82.1786405,114.466275 C84.7401487,114.466275 86.8172873,116.199751 86.8172873,118.33721 L86.8172873,188.016255 C86.8172873,190.153825 84.7401487,191.887191 82.1786405,191.887191" id="Fill-45" fill="#2FA09D"></path>
                            <path d="M121.389888,79.1208882 C118.82838,79.1208882 116.751242,77.387523 116.751242,75.2499531 L116.751242,50.9498576 C116.751242,48.8122877 118.82838,47.0789225 121.389888,47.0789225 C123.951397,47.0789225 126.028535,48.8122877 126.028535,50.9498576 L126.028535,75.2499531 C126.028535,77.387523 123.951397,79.1208882 121.389888,79.1208882" id="Fill-47" fill="#E86954"></path>
                            <path d="M101.730748,218.108941 C99.1692396,218.108941 97.0921009,216.375575 97.0921009,214.238006 L97.0921009,180.455038 C97.0921009,178.317579 99.1692396,176.584103 101.730748,176.584103 C104.292256,176.584103 106.369395,178.317579 106.369395,180.455038 L106.369395,214.238006 C106.369395,216.375575 104.292256,218.108941 101.730748,218.108941" id="Fill-49" fill="#E86954"></path>
                            <path d="M101.730748,100.787853 C99.1692396,100.787853 97.0921009,99.0544883 97.0921009,96.9169184 L97.0921009,79.736116 C97.0921009,77.5985461 99.1692396,75.8650703 101.730748,75.8650703 C104.292256,75.8650703 106.369395,77.5985461 106.369395,79.736116 L106.369395,96.9169184 C106.369395,99.0544883 104.292256,100.787853 101.730748,100.787853" id="Fill-51" fill="#2FA09D"></path>
                            <path d="M42.0075797,169.562717 C39.4460716,169.562717 37.3689329,167.829352 37.3689329,165.691782 L37.3689329,148.510869 C37.3689329,146.37341 39.4460716,144.639934 42.0075797,144.639934 C44.5690879,144.639934 46.6462266,146.37341 46.6462266,148.510869 L46.6462266,165.691782 C46.6462266,167.829352 44.5690879,169.562717 42.0075797,169.562717" id="Fill-53" fill="#E86954"></path>
                            <path d="M62.6265333,212.976725 C60.0650251,212.976725 57.9878865,211.24336 57.9878865,209.10579 L57.9878865,105.904983 C57.9878865,103.767413 60.0650251,102.034048 62.6265333,102.034048 C65.1880414,102.034048 67.2651801,103.767413 67.2651801,105.904983 L67.2651801,209.10579 C67.2651801,211.24336 65.1880414,212.976725 62.6265333,212.976725" id="Fill-55" fill="#E86954"></path>
                            <path d="M121.282855,232.143775 C118.721347,232.143775 116.644208,230.41041 116.644208,228.27284 L116.644208,143.023392 C116.644208,140.885822 118.721347,139.152346 121.282855,139.152346 C123.844363,139.152346 125.921502,140.885822 125.921502,143.023392 L125.921502,228.27284 C125.921502,230.41041 123.844363,232.143775 121.282855,232.143775" id="Fill-57" fill="#2FA09D"></path>
                            <path d="M4.63867334,133.774365 C7.20018149,133.774365 9.27732016,135.507731 9.27732016,137.6453 L9.27732016,158.99023 C9.27732016,161.1278 7.20018149,162.861165 4.63867334,162.861165 C2.0771652,162.861165 2.65262584e-05,161.1278 2.65262584e-05,158.99023 L2.65262584e-05,137.6453 C2.65262584e-05,135.507731 2.0771652,133.774365 4.63867334,133.774365" id="Fill-59" fill="#2FA09D"></path>
                            <path d="M317.751737,96.0360244 C320.313245,96.0360244 322.390384,97.7693896 322.390384,99.9069595 L322.390384,134.168288 C322.390384,136.305858 320.313245,138.039223 317.751737,138.039223 C315.190229,138.039223 313.11309,136.305858 313.11309,134.168288 L313.11309,99.9069595 C313.11309,97.7693896 315.190229,96.0360244 317.751737,96.0360244" id="Fill-61" fill="#E86954"></path>
                            <path d="M298.19963,107.037885 C300.761138,107.037885 302.838276,108.77125 302.838276,110.90882 L303.225295,166.32659 C303.225295,168.464159 301.148023,170.197525 298.586515,170.197525 C296.025007,170.197525 293.947868,168.464159 293.947868,166.32659 L293.560983,110.90882 C293.560983,108.77125 295.638122,107.037885 298.19963,107.037885" id="Fill-63" fill="#2FA09D"></path>
                            <path d="M337.303844,163.223909 C339.865352,163.223909 341.942491,164.957274 341.942491,167.094844 L341.942491,200.877812 C341.942491,203.015271 339.865352,204.748747 337.303844,204.748747 C334.742336,204.748747 332.665197,203.015271 332.665197,200.877812 L332.665197,167.094844 C332.665197,164.957274 334.742336,163.223909 337.303844,163.223909" id="Fill-65" fill="#E86954"></path>
                            <path d="M337.303844,72.7338342 C339.865352,72.7338342 341.942491,74.4671994 341.942491,76.6047693 L341.942491,148.77368 C341.942491,150.91125 339.865352,152.644615 337.303844,152.644615 C334.742336,152.644615 332.665197,150.91125 332.665197,148.77368 L332.665197,76.6047693 C332.665197,74.4671994 334.742336,72.7338342 337.303844,72.7338342" id="Fill-67" fill="#2FA09D"></path>
                            <path d="M278.647536,39.3752482 C281.209044,39.3752482 283.286183,41.1086134 283.286183,43.2461832 L283.286183,122.357188 C283.286183,124.494647 281.209044,126.228123 278.647536,126.228123 C276.086028,126.228123 274.008889,124.494647 274.008889,122.357188 L274.008889,43.2461832 C274.008889,41.1086134 276.086028,39.3752482 278.647536,39.3752482" id="Fill-69" fill="#2FA09D"></path>
                            <path d="M278.540476,202.955227 C275.978968,202.955227 273.901829,201.221862 273.901829,199.084292 L273.901829,137.148556 C273.901829,135.010986 275.978968,133.277621 278.540476,133.277621 C281.101984,133.277621 283.179123,135.010986 283.179123,137.148556 L283.179123,199.084292 C283.179123,201.221862 281.101984,202.955227 278.540476,202.955227" id="Fill-71" fill="#2FA09D"></path>
                            <path d="M298.092583,218.108941 C295.531075,218.108941 293.453936,216.375575 293.453936,214.238006 L293.453936,180.455038 C293.453936,178.317579 295.531075,176.584103 298.092583,176.584103 C300.654091,176.584103 302.73123,178.317579 302.73123,180.455038 L302.73123,214.238006 C302.73123,216.375575 300.654091,218.108941 298.092583,218.108941" id="Fill-73" fill="#E86954"></path>
                            <path d="M298.092583,102.032034 C295.531075,102.032034 293.453936,100.298668 293.453936,98.1610985 L293.453936,76.5530816 C293.453936,74.4155117 295.531075,72.6820358 298.092583,72.6820358 C300.654091,72.6820358 302.73123,74.4155117 302.73123,76.5530816 L302.73123,98.1610985 C302.73123,100.298668 300.654091,102.032034 298.092583,102.032034" id="Fill-75" fill="#E86954"></path>
                            <path d="M356.969126,158.640657 C354.407617,158.640657 352.330479,156.907292 352.330479,154.769722 L352.330479,120.986754 C352.330479,118.849295 354.407617,117.115819 356.969126,117.115819 C359.530634,117.115819 361.607772,118.849295 361.607772,120.986754 L361.607772,154.769722 C361.607772,156.907292 359.530634,158.640657 356.969126,158.640657" id="Fill-77" fill="#E86954"></path>
                            <path d="M375.244365,178.267806 C372.682857,178.267806 370.605718,176.53444 370.605718,174.396871 L370.605718,140.613903 C370.605718,138.476444 372.682857,136.742968 375.244365,136.742968 C377.805873,136.742968 379.883012,138.476444 379.883012,140.613903 L379.883012,174.396871 C379.883012,176.53444 377.805873,178.267806 375.244365,178.267806" id="Fill-79" fill="#E86954"></path>
                            <path d="M22.2508224,159.380124 C19.6893143,159.380124 17.6121756,157.646759 17.6121756,155.509189 L17.6121756,121.726221 C17.6121756,119.588762 19.6893143,117.855286 22.2508224,117.855286 C24.8123306,117.855286 26.8894693,119.588762 26.8894693,121.726221 L26.8894693,155.509189 C26.8894693,157.646759 24.8123306,159.380124 22.2508224,159.380124" id="Fill-81" fill="#E86954"></path>
                            <path d="M258.988395,233.803981 C256.426887,233.803981 254.349748,232.070616 254.349748,229.933046 L254.349748,117.92673 C254.349748,115.78916 256.426887,114.055795 258.988395,114.055795 C261.549903,114.055795 263.627042,115.78916 263.627042,117.92673 L263.627042,229.933046 C263.627042,232.070616 261.549903,233.803981 258.988395,233.803981" id="Fill-83" fill="#E86954"></path>
                            <path d="M317.64469,233.803981 C315.083182,233.803981 313.006043,232.070616 313.006043,229.933046 L313.006043,150.217616 C313.006043,148.080046 315.083182,146.34657 317.64469,146.34657 C320.206198,146.34657 322.283337,148.080046 322.283337,150.217616 L322.283337,229.933046 C322.283337,232.070616 320.206198,233.803981 317.64469,233.803981" id="Fill-85" fill="#2FA09D"></path>
                            <path d="M258.988395,59.6287809 C261.549903,59.6287809 263.627042,61.3621461 263.627042,63.499716 L263.627042,102.000102 C263.627042,104.137672 261.549903,105.871037 258.988395,105.871037 C256.426887,105.871037 254.349748,104.137672 254.349748,102.000102 L254.349748,63.499716 C254.349748,61.3621461 256.426887,59.6287809 258.988395,59.6287809" id="Fill-87" fill="#2FA09D"></path>
                            <path d="M375.244365,100.963503 C377.805873,100.963503 379.883012,102.696868 379.883012,104.834438 L379.883012,126.179368 C379.883012,128.316938 377.805873,130.050303 375.244365,130.050303 C372.682857,130.050303 370.605718,128.316938 370.605718,126.179368 L370.605718,104.834438 C370.605718,102.696868 372.682857,100.963503 375.244365,100.963503" id="Fill-89" fill="#2FA09D"></path>
                            <path d="M393.04111,130.826958 C395.602618,130.826958 397.679757,132.560323 397.679757,134.697893 L397.679757,156.042823 C397.679757,158.180393 395.602618,159.913758 393.04111,159.913758 C390.479602,159.913758 388.402463,158.180393 388.402463,156.042823 L388.402463,134.697893 C388.402463,132.560323 390.479602,130.826958 393.04111,130.826958" id="Fill-91" fill="#E86954"></path>
                        </g>
                    </g>
                    <path d="M329.083045,98.2698413 C329.083045,92.9749208 333.375805,88.6825397 338.675412,88.6825397 L599.926664,88.6825397 C605.224382,88.6825397 609.519031,92.9737566 609.519031,98.2698413 L609.519031,98.2698413 C609.519031,103.564762 605.226271,107.857143 599.926664,107.857143 L338.675412,107.857143 C333.377694,107.857143 329.083045,103.565926 329.083045,98.2698413 L329.083045,98.2698413 Z" id="Rectangle-Copy" fill="#F0F0F1" mask="url(#mask-2)"></path>
                    <rect id="Rectangle" fill="#E86953" mask="url(#mask-2)" x="283.297578" y="88.6825397" width="74.4013841" height="19.1746032" rx="9.58730159"></rect>
                    <rect id="Rectangle-Copy-2" fill="#F0F0F1" mask="url(#mask-2)" x="437.823529" y="131.825397" width="171.695502" height="19.1746032" rx="9.58730159"></rect>
                    <rect id="Rectangle-Copy-5" fill="#F0F0F1" mask="url(#mask-2)" x="369.145329" y="174.968254" width="240.373702" height="19.1746032" rx="9.58730159"></rect>
                    <rect id="Rectangle-Copy-3" fill="#2FA09D" mask="url(#mask-2)" x="283.297578" y="131.825397" width="183.141869" height="19.1746032" rx="9.58730159"></rect>
                    <rect id="Rectangle-Copy-4" fill="#E86953" mask="url(#mask-2)" x="283.297578" y="174.968254" width="114.463668" height="19.1746032" rx="9.58730159"></rect>
                    <rect id="Rectangle-4" fill="#00A9EB" mask="url(#mask-2)" x="280.435986" y="239.68254" width="174.557093" height="11.984127" rx="5.99206349"></rect>
                    <rect id="Rectangle-4-Copy-2" fill="#F0F0F1" mask="url(#mask-2)" x="280.435986" y="266.047619" width="117.32526" height="11.984127" rx="5.99206349"></rect>
                    <rect id="Rectangle-4-Copy-5" fill="#F0F0F1" mask="url(#mask-2)" x="532.256055" y="266.047619" width="117.32526" height="11.984127" rx="5.99206349"></rect>
                    <rect id="Rectangle-4-Copy-3" fill="#F0F0F1" mask="url(#mask-2)" x="280.435986" y="292.412698" width="145.941176" height="11.984127" rx="5.99206349"></rect>
                    <rect id="Rectangle-4-Copy-6" fill="#F0F0F1" mask="url(#mask-2)" x="532.256055" y="292.412698" width="145.941176" height="11.984127" rx="5.99206349"></rect>
                    <rect id="Rectangle-4-Copy-4" fill="#F0F0F1" mask="url(#mask-2)" x="280.435986" y="318.777778" width="60.0934256" height="11.984127" rx="5.99206349"></rect>
                    <rect id="Rectangle-4-Copy-7" fill="#F0F0F1" mask="url(#mask-2)" x="532.256055" y="318.777778" width="60.0934256" height="11.984127" rx="5.99206349"></rect>
                    <rect id="Rectangle-4-Copy" fill="#F0F0F1" mask="url(#mask-2)" x="532.256055" y="239.68254" width="88.7093426" height="11.984127" rx="5.99206349"></rect>
                    <rect id="Rectangle-3" fill="#F0F0F1" mask="url(#mask-2)" x="54.3702422" y="88.6825397" width="88.7093426" height="11.984127" rx="5.99206349"></rect>
                    <rect id="Rectangle-3-Copy" fill="#F0F0F1" mask="url(#mask-2)" x="54.3702422" y="112.650794" width="60.0934256" height="11.984127" rx="5.99206349"></rect>
                    <rect id="Rectangle-3-Copy-2" fill="#F0F0F1" mask="url(#mask-2)" x="54.3702422" y="136.619048" width="117.32526" height="11.984127" rx="5.99206349"></rect>
                    <rect id="Rectangle-3-Copy-3" fill="#F0F0F1" mask="url(#mask-2)" x="54.3702422" y="160.587302" width="77.2629758" height="11.984127" rx="5.99206349"></rect>
                    <ellipse id="Oval" fill="#F0F0F1" mask="url(#mask-2)" cx="37.200692" cy="31.1587302" rx="11.4463668" ry="9.58730159"></ellipse>
                </g>
            </g>
        </g>
    </g>
</svg>